<?xml version="1.0" standalone="no"?>
<!DOCTYPE svg PUBLIC "-//W3C//DTD SVG 20010904//EN"
 "http://www.w3.org/TR/2001/REC-SVG-20010904/DTD/svg10.dtd">
<svg version="1.0" xmlns="http://www.w3.org/2000/svg"
 width="167.000000pt" height="150.000000pt" viewBox="0 0 167.000000 150.000000"
 preserveAspectRatio="xMidYMid meet">

<g transform="translate(0.000000,150.000000) scale(0.100000,-0.100000)"
fill="#000000" stroke="none">
<path d="M339 1240 c-14 -19 -29 -44 -33 -54 -8 -23 2 -58 15 -51 5 3 6 -1 3
-9 -9 -24 53 -21 95 5 31 18 33 22 18 31 -10 5 -28 9 -40 8 -44 -4 -47 -2 -36
29 6 17 9 40 7 53 -3 22 -4 21 -29 -12z"/>
<path d="M433 1260 c-41 -17 -66 -80 -32 -80 16 0 69 57 69 74 0 18 -5 19 -37
6z"/>
<path d="M1070 1257 c0 -8 9 -26 21 -41 15 -20 27 -25 43 -21 17 5 18 4 6 -5
-12 -9 -12 -11 -1 -8 24 7 23 24 -1 51 -28 31 -68 45 -68 24z"/>
<path d="M1170 1247 c0 -14 4 -37 10 -51 10 -28 7 -30 -37 -26 -12 1 -30 -3
-40 -8 -15 -9 -13 -13 18 -31 42 -26 104 -29 95 -5 -3 8 -2 12 3 9 5 -3 12 4
16 15 7 23 -18 80 -46 106 -18 16 -19 16 -19 -9z"/>
<path d="M658 1210 c-150 -38 -283 -164 -329 -311 -65 -210 32 -447 223 -545
314 -160 678 58 678 406 0 188 -94 335 -268 418 -66 31 -84 35 -170 38 -54 2
-114 -1 -134 -6z m88 -208 c7 -4 49 -94 95 -200 l84 -193 3 200 c2 193 3 201
22 201 19 0 20 -7 20 -235 l0 -235 -42 0 -43 0 -75 169 -75 169 -3 -169 c-2
-161 -3 -169 -22 -169 -19 0 -20 8 -20 215 0 118 -4 215 -9 215 -4 0 -20 -11
-34 -24 -31 -28 -43 -80 -27 -120 13 -34 9 -40 -19 -31 -42 13 -44 112 -4 157
42 48 115 72 149 50z m-283 -108 c-3 -8 -11 -14 -18 -14 -17 0 -27 28 -12 33
20 7 36 -4 30 -19z m650 0 c-3 -8 -11 -14 -18 -14 -17 0 -27 28 -12 33 20 7
36 -4 30 -19z m-637 -150 c-14 -29 -49 -28 -63 2 -9 19 -7 25 11 37 18 12 24
12 42 -1 16 -13 18 -20 10 -38z m651 2 c-14 -30 -50 -31 -63 -2 -7 16 -5 25
11 37 17 15 22 15 41 2 18 -12 20 -17 11 -37z m-664 -132 c-3 -8 -11 -14 -18
-14 -17 0 -27 28 -12 33 20 7 36 -4 30 -19z m650 0 c-3 -8 -11 -14 -18 -14
-17 0 -27 28 -12 33 20 7 36 -4 30 -19z"/>
<path d="M257 1153 c-19 -36 -22 -94 -6 -110 8 -8 8 -13 0 -17 -6 -4 -11 -13
-11 -19 0 -7 5 -4 11 6 6 9 22 17 37 17 30 0 92 34 92 50 0 20 -59 10 -89 -16
-37 -31 -42 -18 -6 16 14 13 25 28 25 34 0 6 -5 4 -10 -4 -8 -12 -10 -10 -11
10 0 14 -4 34 -8 45 -7 18 -9 17 -24 -12z"/>
<path d="M1254 1139 c-5 -27 -10 -36 -15 -27 -5 7 -9 8 -9 2 0 -6 11 -21 25
-34 36 -34 31 -47 -6 -16 -30 26 -89 36 -89 16 0 -16 62 -50 92 -50 15 0 31
-8 37 -17 6 -10 11 -13 11 -7 0 5 -5 15 -11 21 -8 8 -8 13 0 17 16 10 13 72
-4 106 -9 17 -18 30 -20 30 -3 0 -8 -18 -11 -41z"/>
<path d="M194 1044 c-9 -45 -6 -74 8 -92 18 -22 38 30 28 74 -13 56 -27 63
-36 18z"/>
<path d="M1325 1071 c-17 -29 -23 -83 -11 -106 18 -34 36 -13 35 39 -1 52 -12
85 -24 67z"/>
<path d="M262 992 c-25 -20 -52 -66 -52 -91 0 -9 -9 3 -20 27 -22 48 -40 48
-40 -1 1 -80 59 -111 112 -60 16 15 28 33 28 40 0 18 -30 16 -52 -4 -17 -15
-18 -15 -18 4 0 14 9 23 28 28 27 6 82 51 82 67 0 14 -44 8 -68 -10z"/>
<path d="M1210 1002 c0 -16 55 -61 83 -67 18 -5 27 -14 27 -28 0 -19 -1 -19
-18 -4 -20 18 -52 23 -52 8 0 -5 12 -23 26 -40 49 -59 113 -27 114 56 0 49
-18 49 -40 1 -11 -24 -20 -36 -20 -27 0 26 -30 78 -53 94 -23 16 -67 21 -67 7z"/>
<path d="M133 818 c4 -31 14 -50 35 -68 16 -14 32 -38 36 -55 l7 -30 -19 28
c-11 15 -29 35 -41 43 -19 14 -21 14 -21 -6 0 -33 26 -75 54 -88 23 -10 26 -9
26 6 0 12 2 14 8 4 12 -18 42 17 52 62 9 43 -2 46 -34 11 l-24 -25 -6 22 c-8
33 -7 45 3 29 8 -13 12 -13 27 0 20 16 48 78 39 87 -3 3 -18 -4 -34 -16 -27
-20 -30 -20 -34 -4 -3 9 -5 1 -6 -18 l-1 -35 -19 41 c-10 23 -27 44 -36 48
-16 6 -17 1 -12 -36z"/>
<path d="M1391 852 c-7 -2 -21 -23 -32 -46 l-19 -41 -1 35 c-1 19 -3 27 -6 18
-4 -16 -7 -16 -34 4 -16 12 -31 19 -34 16 -9 -9 19 -71 39 -87 15 -13 19 -13
27 0 7 12 9 12 8 -1 0 -8 -4 -24 -8 -35 -8 -19 -8 -19 -19 2 -6 11 -18 23 -27
27 -23 9 -19 -46 6 -78 17 -21 24 -25 30 -14 7 10 9 9 9 -5 0 -16 2 -16 29 -3
30 16 55 62 49 92 -2 15 -10 11 -40 -20 -33 -34 -36 -35 -30 -13 4 14 19 35
34 47 38 29 54 114 19 102z"/>
<path d="M256 638 c-9 -12 -16 -29 -17 -38 0 -10 -3 -9 -9 5 -8 19 -9 19 -9 1
-1 -19 -2 -18 -24 2 -52 49 -70 10 -20 -44 17 -19 31 -25 49 -21 14 2 22 2 20
-1 -3 -2 -1 -13 5 -23 12 -23 9 -23 -27 -4 -46 24 -59 20 -38 -12 9 -16 25
-33 33 -40 21 -16 61 -16 61 0 1 6 7 -1 14 -18 13 -29 13 -29 14 -5 1 14 4 44
8 68 3 23 3 50 -1 60 -6 16 -7 16 -21 -2 -8 -11 -14 -34 -14 -50 l-1 -31 -13
25 c-12 21 -11 29 5 59 20 38 26 91 10 91 -6 0 -17 -10 -25 -22z"/>
<path d="M1250 633 c0 -15 9 -44 19 -64 16 -30 17 -38 5 -59 l-13 -25 -1 31
c0 16 -6 39 -14 50 -14 18 -15 18 -21 2 -4 -10 -4 -37 -1 -60 4 -24 7 -54 8
-68 1 -24 1 -24 14 5 7 17 13 24 14 18 1 -38 100 15 100 54 0 15 -35 10 -54
-8 -17 -16 -27 -10 -17 10 6 10 8 21 5 23 -2 3 6 3 20 1 27 -6 69 31 79 67 7
27 -24 27 -49 -1 -17 -19 -19 -19 -25 -2 -7 17 -8 16 -8 -2 -1 -15 -5 -11 -19
14 -22 45 -42 52 -42 14z"/>
<path d="M336 484 c-3 -9 -6 -29 -6 -44 0 -25 -3 -28 -22 -23 -87 20 -99 12
-47 -31 38 -32 84 -36 74 -6 -10 30 2 24 19 -10 l14 -30 -34 0 c-39 0 -44 -13
-11 -34 31 -21 69 -28 87 -17 12 9 10 15 -16 43 -27 29 -30 39 -26 76 7 68
-15 121 -32 76z"/>
<path d="M1174 475 c-3 -14 -4 -44 -2 -67 4 -37 1 -47 -26 -76 -26 -28 -28
-34 -16 -43 18 -11 56 -4 88 17 32 21 27 34 -12 34 l-34 0 14 30 c17 34 29 40
19 10 -10 -30 36 -26 74 6 52 43 40 51 -46 31 -20 -5 -23 -2 -23 23 0 58 -24
81 -36 35z"/>
<path d="M397 424 c-13 -13 -8 -69 9 -92 23 -33 34 -27 34 17 0 39 -29 89 -43
75z"/>
<path d="M1120 415 c-17 -20 -26 -105 -12 -105 19 0 42 43 42 77 0 37 -13 49
-30 28z"/>
<path d="M460 340 c0 -22 9 -41 29 -61 16 -16 26 -29 21 -29 -4 0 -13 7 -20
15 -7 9 -22 13 -36 10 -81 -17 -78 -15 -62 -31 23 -23 84 -29 112 -10 15 10
27 12 31 6 3 -6 12 -10 18 -10 7 0 4 5 -5 11 -10 5 -18 20 -18 33 0 25 -38 87
-57 94 -9 2 -13 -7 -13 -28z"/>
<path d="M1048 353 c-23 -26 -38 -59 -38 -82 0 -11 -8 -25 -17 -30 -10 -6 -13
-11 -6 -11 6 0 15 4 18 10 4 6 16 4 31 -6 28 -19 89 -13 112 10 16 16 19 14
-62 31 -14 3 -29 -1 -36 -10 -7 -8 -16 -15 -20 -15 -5 0 5 13 21 29 19 20 29
40 29 60 0 35 -10 39 -32 14z"/>
<path d="M545 298 c4 -13 13 -33 21 -45 13 -21 12 -23 -24 -33 -78 -21 -81
-39 -8 -47 33 -4 53 -1 72 12 21 13 24 19 13 26 -10 6 -11 9 -1 9 21 0 13 28
-19 65 -36 41 -64 47 -54 13z"/>
<path d="M941 285 c-32 -37 -40 -65 -18 -65 9 0 8 -3 -2 -9 -11 -7 -8 -13 13
-26 19 -13 39 -16 72 -12 73 8 70 26 -8 47 -36 10 -37 12 -24 33 43 68 19 91
-33 32z"/>
<path d="M430 296 c0 -2 7 -7 16 -10 8 -3 12 -2 9 4 -6 10 -25 14 -25 6z"/>
<path d="M1085 290 c-3 -6 1 -7 9 -4 18 7 21 14 7 14 -6 0 -13 -4 -16 -10z"/>
<path d="M744 222 c-12 -12 -33 -17 -59 -16 -25 1 -29 0 -11 -3 16 -3 44 -15
61 -29 l32 -24 28 22 c16 12 47 25 69 30 32 6 28 6 -17 2 -36 -3 -56 -1 -52 5
3 6 -3 15 -13 20 -15 8 -24 6 -38 -7z"/>
</g>
</svg>
